<?xml version="1.0" standalone="no"?><!DOCTYPE svg PUBLIC "-//W3C//DTD SVG 1.1//EN" "http://www.w3.org/Graphics/SVG/1.1/DTD/svg11.dtd"><svg t="1557027410599" class="icon" style="" viewBox="0 0 1024 1024" version="1.1" xmlns="http://www.w3.org/2000/svg" p-id="23377" xmlns:xlink="http://www.w3.org/1999/xlink" width="200" height="200"><defs><style type="text/css"></style></defs><path d="M551.384615 807.384615V590.769231c-141.784615 0-259.938462 31.507692-354.461538 90.584615-27.569231 19.692308-55.138462 39.384615-74.830769 63.015385-11.815385 15.753846-19.692308 23.630769-23.63077 27.569231l-3.938461 3.938461-3.938462 3.938462c-7.876923 3.938462-11.815385 7.876923-19.692307 7.876923-19.692308 0-31.507692-11.815385-31.507693-23.63077 0-137.846154 74.830769-244.184615 220.553847-315.076923 82.707692-39.384615 177.230769-66.953846 287.507692-82.707692V181.169231l27.569231 19.692307 47.261538 23.63077-7.876923 3.938461 370.215385 252.061539v19.692307l-3.938462 3.938462L551.384615 807.384615zM66.953846 748.307692zM590.769231 256v145.723077l-35.446154 3.938461c-106.338462 15.753846-196.923077 39.384615-275.692308 78.769231-122.092308 59.076923-189.046154 141.784615-196.923077 248.123077l11.815385-11.815384c23.630769-23.630769 51.2-47.261538 82.707692-70.892308C275.692308 582.892308 401.723077 551.384615 551.384615 551.384615h39.384616v177.23077l338.707692-236.307693-338.707692-236.307692z m-27.569231-31.507692l-7.876923 7.876923 7.876923-7.876923z" p-id="23378" fill="#ffffff"></path></svg>