<?xml version="1.0" standalone="no"?><!DOCTYPE svg PUBLIC "-//W3C//DTD SVG 1.1//EN" "http://www.w3.org/Graphics/SVG/1.1/DTD/svg11.dtd"><svg t="1557028115487" class="icon" style="" viewBox="0 0 1024 1024" version="1.1" xmlns="http://www.w3.org/2000/svg" p-id="24169" xmlns:xlink="http://www.w3.org/1999/xlink" width="200" height="200"><defs><style type="text/css"></style></defs><path d="M512 1024a512 512 0 1 1 512-512 512 512 0 0 1-512 512z m254.464-658.863158a55.592421 55.592421 0 0 0-78.147368 2.317474l-205.985685 204.8-90.920421-90.381474a56.589474 56.589474 0 0 0-79.575579-3.772631 55.808 55.808 0 0 0 3.826527 79.063578l124.981894 124.254316c0.727579 0.727579 1.643789 0.970105 2.371369 1.64379s0.781474 1.536 1.42821 2.182737a52.116211 52.116211 0 0 0 47.966316 12.8 50.391579 50.391579 0 0 0 11.533474-2.694737 48.936421 48.936421 0 0 0 16.168421-10.213053c0.350316-0.377263 0.431158-0.889263 0.781474-1.239579s1.158737-0.619789 1.643789-1.104842l241.448421-240.074105a54.730105 54.730105 0 0 0 2.479158-77.581474z" fill="#ffffff" p-id="24170"></path></svg>