<?xml version="1.0" standalone="no"?><!DOCTYPE svg PUBLIC "-//W3C//DTD SVG 1.1//EN" "http://www.w3.org/Graphics/SVG/1.1/DTD/svg11.dtd"><svg t="1557028448883" class="icon" style="" viewBox="0 0 1024 1024" version="1.1" xmlns="http://www.w3.org/2000/svg" p-id="25066" xmlns:xlink="http://www.w3.org/1999/xlink" width="200" height="200"><defs><style type="text/css"></style></defs><path d="M875.6 510.6c0.3-6 0.4-12 0.4-18.1 0-200.5-162.5-363.1-363.1-363.1-69.9 0-135.1 19.8-190.4 54-13.2 7.1-22.1 21-22.1 36.9 0 23.1 18.8 41.9 41.9 41.9 9 0 17.2-2.8 24-7.6 42.6-26.3 92.8-41.5 146.6-41.5 154.3 0 279.4 125.1 279.4 279.4 0 6.1-0.2 12.1-0.6 18.1h-81.2l125 179 125-179h-84.9z m-192 251.9c-9 0-17.2 2.8-24 7.6-42.6 26.3-92.8 41.5-146.6 41.5-154.3 0-279.4-125.1-279.4-279.4 0-6.1 0.2-12.1 0.6-18.1h81.2l-125-179-125 179h84.9c-0.3 6-0.4 12-0.4 18.1 0 200.5 162.6 363.1 363.1 363.1 69.9 0 135.1-19.8 190.4-54 13.2-7.1 22.1-21 22.1-36.9 0-23.1-18.7-41.9-41.9-41.9z" fill="#ffffff" p-id="25067"></path></svg>